<?xml version="1.0" encoding="UTF-8"?>
<svg version="1.1" xmlns="http://www.w3.org/2000/svg" width="736" height="736">
<path d="M0 0 C242.88 0 485.76 0 736 0 C736 242.88 736 485.76 736 736 C493.12 736 250.24 736 0 736 C0 493.12 0 250.24 0 0 Z " fill="#EDEDED" transform="translate(0,0)"/>
<path d="M0 0 C1.26070336 -0.11322251 1.26070336 -0.11322251 2.54687548 -0.22873235 C20.36393969 -1.52839197 37.89343594 2.11566423 55.50878906 4.44287109 C55.83878906 28.86287109 56.16878906 53.28287109 56.50878906 78.44287109 C60.94574219 73.10099609 65.38269531 67.75912109 69.95410156 62.25537109 C76.0610007 55.20589736 82.30231944 48.29107926 88.63378906 41.44287109 C89.4459362 40.56395454 90.25808334 39.68503799 91.094841 38.77948761 C110.719292 17.73509 128.03653803 1.0407243 157.72888184 -0.83139038 C174.65635981 -1.38239051 191.81592725 1.95404296 208.50878906 4.44287109 C214.18427532 32.42214265 218.7230356 66.57902726 202.79040527 91.9151001 C186.93873753 115.7022523 165.40271635 135.57348062 144.77558541 155.13238418 C138.59280524 161.02854172 132.6336824 167.09909501 126.76171875 173.30395508 C67.55702599 235.78708978 67.55702599 235.78708978 33.01757812 238.88574219 C32.17710922 238.96122386 31.33664031 239.03670554 30.47070265 239.11447453 C12.65363844 240.41413416 -4.87585781 236.77007796 -22.49121094 234.44287109 C-22.82121094 210.02287109 -23.15121094 185.60287109 -23.49121094 160.44287109 C-27.92816406 165.78474609 -32.36511719 171.12662109 -36.93652344 176.63037109 C-43.04342257 183.67984482 -49.28474132 190.59466292 -55.61621094 197.44287109 C-56.42835808 198.32178764 -57.24050522 199.20070419 -58.07726288 200.10625458 C-77.70171387 221.15065218 -95.0189599 237.84501789 -124.71130371 239.71713257 C-141.63878168 240.2681327 -158.79834913 236.93169923 -175.49121094 234.44287109 C-181.1666972 206.46359954 -185.70545747 172.30671493 -169.77282715 146.97064209 C-153.92115941 123.18348989 -132.38513823 103.31226157 -111.75800729 83.75335801 C-105.57522711 77.85720047 -99.61610428 71.78664718 -93.74414062 65.58178711 C-34.53944787 3.0986524 -34.53944787 3.0986524 0 0 Z " fill="#010101" transform="translate(351.4912109375,248.55712890625)"/>
<path d="M0 0 C2.8100346 1.79363911 4.50940468 3.01880935 6 6 C6.39447548 10.18144011 6.45035186 12.30946048 4.125 15.875 C1.19961143 18.80038857 0.42659437 18.96503325 -3.8125 19.3125 C-7.09098835 19.27673467 -8.00661884 18.99591603 -10.9375 17.1875 C-13.59304131 14.3710168 -13.94294778 12.44011711 -14.4375 8.625 C-14 5 -14 5 -11.5 2.0625 C-7.6044299 -0.71873444 -4.68007444 -0.66858206 0 0 Z " fill="#C5C5C5" transform="translate(554,464)"/>
<path d="M0 0 C2.8100346 1.79363911 4.50940468 3.01880935 6 6 C6.39447548 10.18144011 6.45035186 12.30946048 4.125 15.875 C1.19961143 18.80038857 0.42659437 18.96503325 -3.8125 19.3125 C-7.09098835 19.27673467 -8.00661884 18.99591603 -10.9375 17.1875 C-13.59304131 14.3710168 -13.94294778 12.44011711 -14.4375 8.625 C-14 5 -14 5 -11.5 2.0625 C-7.6044299 -0.71873444 -4.68007444 -0.66858206 0 0 Z M-11 5 C-11.47307456 7.17495081 -11.47307456 7.17495081 -11.375 9.5 C-11.38273438 10.2734375 -11.39046875 11.046875 -11.3984375 11.84375 C-10.90185582 14.53113322 -10.19583612 15.40167031 -8 17 C-3.91533609 17.59668724 -3.91533609 17.59668724 0 17 C2.75 14.5 2.75 14.5 4 11 C3.93754358 7.81472279 3.50004001 5.88242354 1.9375 3.125 C-2.44525404 0.58017508 -7.92377855 0.75368205 -11 5 Z " fill="#333333" transform="translate(554,464)"/>
<path d="M0 0 C0.33 0 0.66 0 1 0 C1 3.96 1 7.92 1 12 C1.66 12 2.32 12 3 12 C3 10.35 3 8.7 3 7 C3.99 7.33 4.98 7.66 6 8 C6.6875 10.0625 6.6875 10.0625 7 12 C7.66 12 8.32 12 9 12 C8.67 10.68 8.34 9.36 8 8 C9.32 7.34 10.64 6.68 12 6 C11.25 11.75 11.25 11.75 9 14 C1.80260304 14.57122198 1.80260304 14.57122198 -0.734375 12.765625 C-2.34595843 10.51736664 -2.37126991 9.18160268 -2.3125 6.4375 C-2.30863281 5.65246094 -2.30476562 4.86742187 -2.30078125 4.05859375 C-2 2 -2 2 0 0 Z " fill="#DADADA" transform="translate(545,467)"/>
<path d="M0 0 C0 3 0 3 -1 5 C-1.66 5 -2.32 5 -3 5 C-3.3403125 5.86625 -3.3403125 5.86625 -3.6875 6.75 C-5.32741284 9.56127916 -7.47216681 10.97773345 -10 13 C-11.31165257 15.11660427 -11.31165257 15.11660427 -12 17 C-12.99 17 -13.98 17 -15 17 C-15 17.66 -15 18.32 -15 19 C-16.62626404 20.38232443 -18.2925002 21.71937515 -20 23 C-20 20 -20 20 -18.1640625 17.82348633 C-17.32617188 17.00130615 -16.48828125 16.17912598 -15.625 15.33203125 C-14.72265625 14.43935547 -13.8203125 13.54667969 -12.890625 12.62695312 C-11.9272427 11.68863843 -10.96369892 10.7504895 -10 9.8125 C-9.03577654 8.86332231 -8.07222608 7.91346044 -7.109375 6.96289062 C-4.74613254 4.63509681 -2.37618518 2.31456867 0 0 Z " fill="#121212" transform="translate(241,341)"/>
<path d="M0 0 C0.66 0 1.32 0 2 0 C2.12117187 0.62648438 2.24234375 1.25296875 2.3671875 1.8984375 C2.53476562 2.71570313 2.70234375 3.53296875 2.875 4.375 C3.03742187 5.18710937 3.19984375 5.99921875 3.3671875 6.8359375 C3.86658932 9.18673923 3.86658932 9.18673923 6 11 C10.13997567 11.1971417 13.07703567 11.30765478 17 10 C16 13 16 13 14 14 C6.93812375 14.57884232 6.93812375 14.57884232 3.0625 12.1875 C-0.50136523 8.40764294 -0.09398943 4.98143974 0 0 Z " fill="#242424" transform="translate(540,469)"/>
<path d="M0 0 C1.98 0 3.96 0 6 0 C4.68 0.33 3.36 0.66 2 1 C2 1.99 2 2.98 2 4 C3.65 4 5.3 4 7 4 C7.33 3.01 7.66 2.02 8 1 C7.814375 1.9075 7.62875 2.815 7.4375 3.75 C7.04265379 6.68314324 7.05308428 8.2644657 8 11 C7.34 11 6.68 11 6 11 C5.71125 10.360625 5.4225 9.72125 5.125 9.0625 C4.17176549 6.84793921 4.17176549 6.84793921 2 6 C2 7.65 2 9.3 2 11 C1.34 11 0.68 11 0 11 C0 7.37 0 3.74 0 0 Z " fill="#1E1E1E" transform="translate(546,468)"/>
<path d="M0 0 C-0.33 1.32 -0.66 2.64 -1 4 C-1.66 4 -2.32 4 -3 4 C-3.33 5.65 -3.66 7.3 -4 9 C-4.99 9 -5.98 9 -7 9 C-7.33 9.66 -7.66 10.32 -8 11 C-9.32 10.67 -10.64 10.34 -12 10 C-10.38113585 8.32737283 -8.7547271 6.66204463 -7.125 5 C-6.22007812 4.071875 -5.31515625 3.14375 -4.3828125 2.1875 C-2 0 -2 0 0 0 Z " fill="#DFDFDF" transform="translate(475,416)"/>
<path d="M0 0 C0 3.6959107 -0.83487616 6.50462849 -2 10 C-4.64 10.33 -7.28 10.66 -10 11 C-6.79239749 7.19364503 -3.59253891 3.45436433 0 0 Z " fill="#DDDDDD" transform="translate(449,440)"/>
<path d="M0 0 C0 3 0 3 -2.125 5.25 C-3.07375 6.1575 -4.0225 7.065 -5 8 C-6.01120437 9.17797367 -7.01093101 10.36588027 -8 11.5625 C-10.41864101 14.43228649 -12.96465016 16.76812511 -16 19 C-16 16 -16 16 -14.53125 14.19067383 C-13.8609375 13.53607178 -13.190625 12.88146973 -12.5 12.20703125 C-11.778125 11.49482422 -11.05625 10.78261719 -10.3125 10.04882812 C-9.549375 9.31083984 -8.78625 8.57285156 -8 7.8125 C-6.8553125 6.68811523 -6.8553125 6.68811523 -5.6875 5.54101562 C-3.79819161 3.68713177 -1.90224794 1.84058931 0 0 Z " fill="#151515" transform="translate(203,379)"/>
<path d="M0 0 C5.75 -0.125 5.75 -0.125 8 1 C6.60667426 4.36720387 5.0210714 5.9859524 2 8 C1.33333333 5.33333333 0.66666667 2.66666667 0 0 Z " fill="#E4E4E4" transform="translate(211,361)"/>
<path d="M0 0 C0 3.52032428 -0.70351351 4.4385343 -3 7 C-3.66 7 -4.32 7 -5 7 C-5.20625 7.556875 -5.4125 8.11375 -5.625 8.6875 C-7.55000774 11.92501302 -10.03850902 13.68231141 -13 16 C-13.66 15.67 -14.32 15.34 -15 15 C-10.05 10.05 -5.1 5.1 0 0 Z " fill="#141414" transform="translate(323,259)"/>
<path d="M0 0 C0.33 0.66 0.66 1.32 1 2 C-0.07826365 3.27513763 -1.16285519 4.54492569 -2.25 5.8125 C-2.85328125 6.52019531 -3.4565625 7.22789062 -4.078125 7.95703125 C-5.92370398 9.91889671 -7.79945332 11.45669625 -10 13 C-10.66 12.67 -11.32 12.34 -12 12 C-8.04 8.04 -4.08 4.08 0 0 Z " fill="#D7D7D7" transform="translate(438,451)"/>
<path d="M0 0 C0.33 0 0.66 0 1 0 C1 3.96 1 7.92 1 12 C0.01 11.67 -0.98 11.34 -2 11 C-2.05399736 9.54207116 -2.09279177 8.08357288 -2.125 6.625 C-2.15980469 5.40683594 -2.15980469 5.40683594 -2.1953125 4.1640625 C-2 2 -2 2 0 0 Z " fill="#EBEBEB" transform="translate(545,467)"/>
<path d="M0 0 C0.99 0.33 1.98 0.66 3 1 C-0.3 4.3 -3.6 7.6 -7 11 C-7.33 10.01 -7.66 9.02 -8 8 C-6.37660195 6.29115995 -4.70680947 4.62553283 -3 3 C-2.34 3 -1.68 3 -1 3 C-0.67 2.01 -0.34 1.02 0 0 Z " fill="#DADADA" transform="translate(206,373)"/>
<path d="M0 0 C0.70125 0.28875 1.4025 0.5775 2.125 0.875 C2.125 1.205 2.125 1.535 2.125 1.875 C0.475 1.875 -1.175 1.875 -2.875 1.875 C-2.875 3.525 -2.875 5.175 -2.875 6.875 C-4.525 6.875 -6.175 6.875 -7.875 6.875 C-8.205 7.535 -8.535 8.195 -8.875 8.875 C-8.875 5.41834824 -8.48868545 5.01313201 -6.1875 2.625 C-3.31601599 -0.14417461 -3.31601599 -0.14417461 0 0 Z " fill="#E6E6E6" transform="translate(269.875,469.125)"/>
<path d="M0 0 C-1.40844718 3.21524305 -3.10344786 5.32183868 -5.625 7.75 C-6.57246094 8.67039062 -6.57246094 8.67039062 -7.5390625 9.609375 C-8.02117187 10.06828125 -8.50328125 10.5271875 -9 11 C-9.33 10.01 -9.66 9.02 -10 8 C-9.01 7.67 -8.02 7.34 -7 7 C-6.29848848 5.6846659 -5.63474075 4.34882408 -5 3 C-2.42857143 0 -2.42857143 0 0 0 Z " fill="#DBDBDB" transform="translate(328,253)"/>
<path d="M0 0 C0.99 0.33 1.98 0.66 3 1 C3.6875 3.0625 3.6875 3.0625 4 5 C3.34 5 2.68 5 2 5 C2 5.66 2 6.32 2 7 C0.35 6.67 -1.3 6.34 -3 6 C-2.01 5.67 -1.02 5.34 0 5 C0 3.35 0 1.7 0 0 Z " fill="#D2D2D2" transform="translate(548,474)"/>
<path d="M0 0 C1.125 3.75 1.125 3.75 0 6 C0.39938767 8.09821215 0.39938767 8.09821215 1 10 C0.34 10 -0.32 10 -1 10 C-1.28875 9.360625 -1.5775 8.72125 -1.875 8.0625 C-2.82823451 5.84793921 -2.82823451 5.84793921 -5 5 C-5 4.34 -5 3.68 -5 3 C-3.35 3 -1.7 3 0 3 C0 2.01 0 1.02 0 0 Z " fill="#242424" transform="translate(553,469)"/>
<path d="M0 0 C0 3.77910478 -0.99703962 4.46106101 -3.5 7.1875 C-4.1496875 7.90292969 -4.799375 8.61835938 -5.46875 9.35546875 C-5.9740625 9.89816406 -6.479375 10.44085938 -7 11 C-7.99 10.67 -8.98 10.34 -10 10 C-6.7 6.7 -3.4 3.4 0 0 Z " fill="#D3D3D3" transform="translate(514,375)"/>
<path d="M0 0 C0.33 0.66 0.66 1.32 1 2 C-0.28062485 3.7074998 -1.61767557 5.37373596 -3 7 C-3.66 7 -4.32 7 -5 7 C-5.66 8.32 -6.32 9.64 -7 11 C-7.66 10.34 -8.32 9.68 -9 9 C-6.03 6.03 -3.06 3.06 0 0 Z " fill="#131313" transform="translate(267,315)"/>
<path d="M0 0 C-1 3 -1 3 -3 4 C-5.6723621 4.13415472 -8.32250488 4.04318541 -11 4 C-8.07317918 1.07317918 -4.14037627 0 0 0 Z " fill="#2A2A2A" transform="translate(557,479)"/>
<path d="M0 0 C1.32 0.66 2.64 1.32 4 2 C1.03 4.475 1.03 4.475 -2 7 C-2.33 6.34 -2.66 5.68 -3 5 C-1.5625 2.375 -1.5625 2.375 0 0 Z " fill="#DCDCDC" transform="translate(300,277)"/>
<path d="M0 0 C0.928125 1.175625 0.928125 1.175625 1.875 2.375 C3.89858661 4.96837647 3.89858661 4.96837647 6 7 C4.02 7 2.04 7 0 7 C-0.38133299 5.0085944 -0.71325582 3.00720923 -1 1 C-0.67 0.67 -0.34 0.34 0 0 Z " fill="#DEDEDE" transform="translate(540,476)"/>
<path d="M0 0 C0.33 0.66 0.66 1.32 1 2 C-1.3125 4.5 -1.3125 4.5 -4 7 C-4.99 7 -5.98 7 -7 7 C-4.69 4.69 -2.38 2.38 0 0 Z " fill="#E4E4E4" transform="translate(326,410)"/>
<path d="M0 0 C0.33 0.99 0.66 1.98 1 3 C-1.97 5.475 -1.97 5.475 -5 8 C-4.45773019 4.20411134 -2.79872437 2.52788007 0 0 Z " fill="#DBDBDB" transform="translate(181,398)"/>
<path d="M0 0 C0.33 0.66 0.66 1.32 1 2 C-0.98 4.31 -2.96 6.62 -5 9 C-5.66 8.34 -6.32 7.68 -7 7 C-4.69 4.69 -2.38 2.38 0 0 Z " fill="#141414" transform="translate(219,363)"/>
<path d="M0 0 C-0.33 0.99 -0.66 1.98 -1 3 C-2.65 3 -4.3 3 -6 3 C-6 2.01 -6 1.02 -6 0 C-2.25 -1.125 -2.25 -1.125 0 0 Z " fill="#A9A9A9" transform="translate(554,469)"/>
<path d="M0 0 C0.99 0 1.98 0 3 0 C2.6875 1.875 2.6875 1.875 2 4 C1.01 4.66 0.02 5.32 -1 6 C-1.042721 4.33388095 -1.04063832 2.66617115 -1 1 C-0.67 0.67 -0.34 0.34 0 0 Z " fill="#E7E7E7" transform="translate(516,373)"/>
<path d="M0 0 C2.475 0.495 2.475 0.495 5 1 C3.35 2.65 1.7 4.3 0 6 C0 4.02 0 2.04 0 0 Z " fill="#DDDDDD" transform="translate(270,306)"/>
</svg>
